<svg width="732" height="109" viewBox="0 0 732 109" fill="none" xmlns="http://www.w3.org/2000/svg">
<g clip-path="url(#clip0)">
<path d="M586.717 38.0995L576.312 37.13C465.972 26.885 370.658 18.035 283.666 15.1312C237.622 13.594 196.826 13.832 158.993 15.8601C117.594 18.0755 79.7888 22.4026 43.3603 29.0836C14.2716 34.4285 -8.91117 42.5708 -25.5362 53.2925C-38.8357 61.8644 -48.0186 72.0961 -52.7881 83.7056C-56.6975 93.1619 -57.0037 102.021 -56.2379 108.712L-55.0514 108.888C-55.8189 102.216 -55.5119 93.3471 -51.5999 83.8636C-44.1189 65.6789 -21.4085 41.4705 44.1699 29.4326C193.741 1.97226 354.227 16.8733 576.338 37.5001L586.743 38.4695C642.106 43.6118 690.022 46.3687 729.145 46.6672C749.968 46.8258 768.569 46.2985 784.828 45.0823C784.539 44.9609 784.248 44.8486 783.959 44.7272C737.455 48.1762 671.327 45.9588 586.717 38.0995Z" fill="url(#paint0_linear)"/>
<path d="M-11.1226 -1.40597C-11.0273 -1.38264 -9.78836 -1.00923 -9.69305 -0.985897C32.2796 11.2666 71.6028 18.4236 110.449 20.8896H110.469C156.482 23.8069 198.035 20.0573 242.029 16.082C268.39 13.7015 295.648 11.2355 325.936 9.95964C360.246 8.5049 393.336 8.83942 427.074 10.9787C438.168 11.6867 449.567 12.5969 460.927 13.7015C477.682 15.3274 494.36 16.6732 510.505 17.7001C613.588 24.2425 685.22 17.1011 727.173 9.95964C750.943 5.91438 767.926 1.43348 777.971 -1.60824C784.033 -3.44417 788.341 -4.97671 791.009 -5.98802C791.162 -6.05026 792.877 -6.78929 793.03 -6.84375L758.51 83.7857C758.377 83.7623 757.023 83.4823 756.89 83.4589C724.352 77.3132 694.255 73.4158 664.901 71.5565C591.82 66.92 534.922 75.9985 474.689 85.606C437.882 91.4794 399.836 97.5473 354.985 101.211C330.739 103.195 306.951 104.276 282.267 104.525C254.742 104.798 225.769 103.989 196.148 102.114C169.043 100.395 140.395 97.7185 110.964 94.1633C101.529 93.0198 92.0936 92.1485 82.9252 91.565C36.0347 88.5933 1.20994 93.5565 -19.7383 98.2397C-35.6543 101.795 -46.1952 105.747 -51.1511 107.816C-51.2464 107.855 -52.9047 108.617 -53 108.656L-11.1226 -1.40597Z" fill="url(#paint1_radial)"/>
<path d="M501.126 104.039C406.147 106.858 321.134 97.2092 246.137 88.7117C205.567 84.105 167.267 79.7652 130.519 77.6369C89.333 75.251 55.6291 75.9922 24.4976 79.9636C-6.78799 83.9433 -33.6924 89.2843 -55.5326 95.8289C-75.0716 101.686 -90.6132 108.509 -101.708 116.126C-103.241 117.175 -104.659 118.217 -105.997 119.283L-104.099 119.288C-83.5873 103.473 -42.3119 89.0371 24.892 80.4792C92.479 71.8739 163.408 79.9193 245.526 89.2412C283.944 93.6015 323.693 98.1183 366.144 101.228C414.364 104.765 458.495 105.865 501.06 104.607C537.444 103.52 572.533 100.503 605.366 95.6346C636.135 91.0653 665.282 84.8117 691.895 77.0705C740.629 62.8904 781.2 43.5932 809.225 21.2672C808.793 21.1965 808.322 21.1279 807.891 21.0706C746.667 69.8129 634.885 100.071 501.126 104.039Z" fill="url(#paint2_linear)"/>
<path d="M790.476 53.2786L785.204 52.3677C729.133 42.7112 680.733 34.3646 614.473 29.4532C579.411 26.8543 541.556 25.3858 498.75 24.9636C451.948 24.5036 399.358 25.2846 338.03 27.3527C289.049 29.0024 233.496 32.346 172.862 37.2856C124.366 41.2397 72.5478 46.2162 18.8214 52.0854C-15.2866 55.8108 -45.8542 59.4291 -70.8499 62.5104L-71.0123 62.7057C-45.9913 59.6178 -15.2956 55.9838 18.9409 52.2471C103.262 43.0371 227.015 31.2752 337.711 27.5445C589.923 19.0441 671.46 33.0934 784.313 52.5371L789.585 53.448C801.791 55.5533 814.642 57.3645 828.086 58.8819L828.269 58.6374C815.505 57.1803 802.84 55.4129 790.476 53.2786Z" fill="url(#paint3_linear)"/>
</g>
<defs>
<linearGradient id="paint0_linear" x1="-62.2984" y1="81.6304" x2="233.69" y2="-417.689" gradientUnits="userSpaceOnUse">
<stop stop-color="#6C5BA7"/>
<stop offset="0.252" stop-color="#3F3166"/>
<stop offset="0.5002" stop-color="#6C5BA7"/>
<stop offset="0.8413" stop-color="#382A5B"/>
<stop offset="1" stop-color="#6C5BA7"/>
</linearGradient>
<radialGradient id="paint1_radial" cx="0" cy="0" r="1" gradientUnits="userSpaceOnUse" gradientTransform="translate(406.229 -51.4021) rotate(3.62991) scale(598.918 221.875)">
<stop stop-color="#212629"/>
<stop offset="0.7688" stop-color="#08090A"/>
<stop offset="1"/>
</radialGradient>
<linearGradient id="paint2_linear" x1="872.555" y1="-162.206" x2="738.84" y2="364.966" gradientUnits="userSpaceOnUse">
<stop stop-color="#6C5BA7"/>
<stop offset="0.252" stop-color="#3F3166"/>
<stop offset="0.5002" stop-color="#6C5BA7"/>
<stop offset="0.8413" stop-color="#382A5B"/>
<stop offset="1" stop-color="#6C5BA7"/>
</linearGradient>
<linearGradient id="paint3_linear" x1="29.6267" y1="40.2831" x2="93.9003" y2="222.082" gradientUnits="userSpaceOnUse">
<stop stop-color="#6C5BA7"/>
<stop offset="0.252" stop-color="#3F3166"/>
<stop offset="0.5002" stop-color="#6C5BA7"/>
<stop offset="0.8413" stop-color="#382A5B"/>
<stop offset="1" stop-color="#6C5BA7"/>
</linearGradient>
<clipPath id="clip0">
<rect width="806" height="132" fill="white" transform="translate(-53 -12)"/>
</clipPath>
</defs>
</svg>
