<svg width="34" height="30" fill="none" xmlns="http://www.w3.org/2000/svg"><path d="M33.852 12.885l-3.63-2.9V4.218a.467.467 0 00-.472-.469h-.944a.474.474 0 00-.472.47v4.253l-10-8.004a2.126 2.126 0 00-2.667 0L.15 12.885a.394.394 0 00-.06.556l.839 1.026a.401.401 0 00.427.131.402.402 0 00.14-.073l2.282-1.827v16.364c0 .248.1.487.277.663a.948.948 0 00.667.274h24.556a.95.95 0 00.668-.274.934.934 0 00.276-.663V12.704l2.29 1.833a.405.405 0 00.567-.059l.838-1.025a.416.416 0 00-.066-.568v0zm-14.018 15.24h-5.667v-9.376h5.667v9.375zm8.5 0h-6.611V17.811c0-.249-.1-.487-.277-.663a.948.948 0 00-.668-.275h-7.555c-.251 0-.491.1-.668.275a.934.934 0 00-.277.663v10.312H5.667V11.186l11.08-8.871a.393.393 0 01.496 0l11.09 8.876v16.933z" stroke="url(#paint0_linear)" stroke-opacity=".5" stroke-width="2" stroke-linecap="round" stroke-linejoin="round"/><defs><linearGradient id="paint0_linear" x1="34" y1="32.727" x2=".99" y2="2.992" gradientUnits="userSpaceOnUse"><stop stop-color="#121212"/><stop offset=".234" stop-color="#212121"/><stop offset=".443" stop-color="#333"/><stop offset=".682" stop-color="#212121"/><stop offset="1" stop-color="#121212"/></linearGradient></defs></svg>