<svg width="42" height="42" fill="none" xmlns="http://www.w3.org/2000/svg"><path d="M21 41.836c-.722 0-7.022-.066-7.022-2.297 0-2.231 6.3-2.297 7.022-2.297.722 0 7.022.066 7.022 2.297 0 2.231-6.3 2.297-7.022 2.297zm-5.644-2.297c.46.394 2.527.984 5.644.984 3.15 0 5.184-.59 5.644-.984-.46-.394-2.527-.984-5.644-.984-3.15 0-5.184.59-5.644.984zM21 35.306c-10.369 0-18.769-8.433-18.769-18.768a.66.66 0 01.657-.657h2.428a.66.66 0 01.656.657c0 .36-.295.656-.656.656H3.544c.36 9.319 8.039 16.8 17.456 16.8s17.128-7.482 17.456-16.8h-1.772a.658.658 0 01-.656-.656c0-.361.295-.657.656-.657h2.428a.66.66 0 01.657.657c0 10.335-8.4 18.768-18.769 18.768z" fill="#fff" fill-opacity=".35"/><path d="M21 32.845c-9.023 0-16.34-7.317-16.34-16.34C4.66 7.48 11.976.165 21 .165s16.34 7.316 16.34 16.34c0 9.023-7.317 16.34-16.34 16.34zm0-31.368c-8.302 0-15.028 6.759-15.028 15.028 0 8.268 6.726 15.028 15.028 15.028s15.028-6.76 15.028-15.028c0-8.27-6.726-15.028-15.028-15.028z" fill="#fff" fill-opacity=".35"/><path d="M21 29.006c-6.89 0-12.502-5.61-12.502-12.501C8.498 9.615 14.11 4.003 21 4.003c6.89 0 12.502 5.611 12.502 12.502 0 6.89-5.611 12.501-12.502 12.501zM21 4.66c-6.53 0-11.845 5.316-11.845 11.846S14.47 28.35 21 28.35s11.845-5.316 11.845-11.845c0-6.53-5.315-11.846-11.845-11.846zm0 35.667a.658.658 0 01-.656-.657v-5.02c0-.36.295-.656.656-.656.36 0 .656.295.656.656v5.02a.659.659 0 01-.656.657z" fill="#fff" fill-opacity=".35"/><path d="M14.438 17.587a.298.298 0 01-.23-.098.317.317 0 010-.46l7.317-7.316a.317.317 0 01.46 0 .317.317 0 010 .459l-7.318 7.35a.609.609 0 01-.23.066zm.623 5.185a.298.298 0 01-.23-.099.317.317 0 010-.459L26.71 10.336a.317.317 0 01.46 0 .317.317 0 010 .46L15.29 22.672a.298.298 0 01-.23.099zm5.184.623a.298.298 0 01-.23-.098.317.317 0 010-.46l7.318-7.317a.317.317 0 01.46 0 .317.317 0 010 .46l-7.318 7.317a.355.355 0 01-.23.098z" fill="#fff" fill-opacity=".35"/></svg>