<svg width="35" height="35" fill="none" xmlns="http://www.w3.org/2000/svg"><path d="M33.719 3.844l-2.563-2.563a4.375 4.375 0 00-6.187 0L.878 25.372.01 33.178a1.64 1.64 0 001.812 1.812l7.806-.868 24.09-24.09a4.375 4.375 0 000-6.188zM11.258 23.742c.427.427 1.12.427 1.547 0L25.156 11.39l2.055 2.055-15.316 15.317v-2.375H8.613v-3.282H6.238L21.555 7.79l2.055 2.055-12.352 12.351a1.093 1.093 0 000 1.547zm-2.635 8.291l-4.033.448-2.07-2.071.448-4.032 1.357-1.357H6.7v3.28h3.28v2.376l-1.357 1.357zM32.172 8.485l-3.414 3.414L23.1 6.242l3.414-3.414a2.186 2.186 0 013.094 0l2.563 2.563a2.186 2.186 0 010 3.094z" fill="#fff" fill-opacity=".35"/></svg>