<svg width="39" height="35" fill="none" xmlns="http://www.w3.org/2000/svg"><path d="M19.5 16.281a6.094 6.094 0 100 12.188 6.094 6.094 0 000-12.188zm0 9.75a3.657 3.657 0 110-7.313 3.657 3.657 0 010 7.313zm8.716-13.387a4.875 4.875 0 00-4.233-2.457h-8.966a4.875 4.875 0 00-4.233 2.457L2.758 26.688a2.44 2.44 0 00-.32 1.21v4.227a2.437 2.437 0 002.437 2.438h29.25a2.438 2.438 0 002.438-2.438v-4.227c0-.425-.11-.842-.321-1.21l-8.026-14.044zm5.909 19.481H4.875v-4.227L12.9 13.853a2.442 2.442 0 012.117-1.228h8.966a2.443 2.443 0 012.116 1.228l8.026 14.045v4.227zm3.981-25.121C32.885 2.814 26.265.438 19.5.438 12.735.438 6.115 2.814.894 7.003A2.45 2.45 0 000 8.914v4.93a1.219 1.219 0 001.219 1.219h5.34a1.219 1.219 0 001.09-.675l2.101-4.81c3.04-1.316 6.34-1.828 9.75-1.828s6.71.512 9.75 1.828l2.1 4.81a1.22 1.22 0 001.09.675h5.341A1.219 1.219 0 0039 13.842V8.916a2.45 2.45 0 00-.894-1.911zm-1.544 5.621h-3.321l-1.758-4.023-.38-.88-.882-.38c-3.155-1.366-6.661-2.03-10.721-2.03-4.06 0-7.565.664-10.718 2.029l-.881.38-.381.88-1.76 4.024H2.432l-.014-3.72A27.399 27.399 0 0119.5 2.875a27.261 27.261 0 0117.063 6.04v3.71z" fill="#fff" fill-opacity=".35"/></svg>