<svg width="37" height="37" fill="none" xmlns="http://www.w3.org/2000/svg"><path d="M36.3 34.38l-9.209-9.209a.847.847 0 00-.607-.25h-.735a14.783 14.783 0 003.948-10.073C29.697 6.646 23.05 0 14.848 0S0 6.646 0 14.848c0 8.203 6.646 14.849 14.848 14.849 3.891 0 7.425-1.5 10.073-3.94v.727c0 .229.093.443.25.607l9.209 9.21a.857.857 0 001.213 0l.707-.708a.857.857 0 000-1.213zm-21.452-6.968c-6.945 0-12.564-5.618-12.564-12.564 0-6.945 5.619-12.564 12.564-12.564 6.946 0 12.565 5.619 12.565 12.564 0 6.946-5.619 12.565-12.565 12.565z" fill="#fff" fill-opacity=".35"/></svg>